<svg xmlns="http://www.w3.org/2000/svg" enable-background="new 0 0 650 600" viewBox="0 0 650 600"><linearGradient id="a" x1="269.063" x2="367.946" y1="83.395" y2="367.682" gradientUnits="userSpaceOnUse"><stop offset="0" stop-color="#cedcf9" stop-opacity="0"/><stop offset="1" stop-color="#c3d2ff"/></linearGradient><path fill="url(#a)" d="M528.448 404.618H136.274c-48.878 0-71.297-55.347-33.87-83.827.31-.243.63-.467.941-.71 8.529-6.401 14.104-15.755 14.104-29.432 3.322-17.94-15.017-22.72-19.922-53.813-8.635-54.648 20.738-90.559 53.58-108.83 109.48-60.933 317.263-60.933 406.715-1.971 17.222 11.364 26.333 43.468 19.368 58.62-42.875 93.318-19.64 118.525-1.68 151.434 17.232 31.56-8.198 68.53-47.062 68.53z"/><linearGradient id="b" x1="336.536" x2="326.211" y1="503.717" y2="420.258" gradientUnits="userSpaceOnUse"><stop offset="0" stop-color="#cedcf9" stop-opacity="0"/><stop offset="1" stop-color="#c3d2ff"/></linearGradient><path fill="url(#b)" d="M580.916 454.109v1.282c-.155 26.858-39.048 40.234-175.737 39.582-17.931-.077-36.659-.417-55.678-.971-10.14 13.871-65.479 24.245-132.172 23.934-73.832-.36-133.6-13.696-133.493-29.791.01-1.904.855-3.769 2.468-5.566 6.945-7.712 6.391-18.397-.38-26.226-1.427-1.652-2.185-3.284-2.175-4.887 0-.466.01-.941.03-1.437.873-25.45 22.204-45.43 47.673-45.41l399.158.203c27.392.01 49.976 21.914 50.306 49.287z"/><path fill="#111228" d="M207.886 404.614h-9.704c-12.355 0-22.38-10.015-22.38-22.37V135.85c0-1.126.088-2.233.253-3.312 1.593-10.782 10.899-19.058 22.127-19.058h9.704c-11.54 0-21.04 8.733-22.234 19.962a19.677 19.677 0 0 0-.136 2.408v246.394c0 12.355 10.015 22.37 22.37 22.37z"/><path fill="#373a50" d="M350.461 135.85v246.384c0 12.356-10.005 22.38-22.37 22.38H206.818c-12.356 0-22.38-10.024-22.38-22.38V135.85c0-1.884.233-3.72.68-5.468 2.438-9.704 11.229-16.902 21.7-16.902H328.09a22.23 22.23 0 0 1 13.356 4.43c5.479 4.08 9.014 10.597 9.014 17.94z"/><path fill="#fff" d="M340.585 135.854v246.382c0 6.89-5.604 12.494-12.503 12.494H206.813c-6.89 0-12.493-5.605-12.493-12.494V135.854c0-6.889 5.604-12.493 12.493-12.493h26.233v.91c0 5.86 4.754 10.625 10.625 10.625h47.563c5.87 0 10.625-4.764 10.625-10.626v-.91h26.223c6.899 0 12.503 5.605 12.503 12.494z"/><linearGradient id="c" x1="205.384" x2="324.197" y1="241.962" y2="241.962" gradientUnits="userSpaceOnUse"><stop offset="0" stop-color="#d1deff"/><stop offset="1" stop-color="#b2c7ff"/></linearGradient><path fill="url(#c)" d="M220.86 150.383h-5.3c-5.62 0-10.176 4.556-10.176 10.176v162.806c0 5.62 4.556 10.175 10.176 10.175h5.3V150.383z"/><linearGradient id="d" x1="210.707" x2="329.52" y1="241.962" y2="241.962" gradientUnits="userSpaceOnUse"><stop offset="0" stop-color="#ebf2ff"/><stop offset="1" stop-color="#e1e8ff"/></linearGradient><path fill="url(#d)" d="M319.225 333.54h-98.223c-5.686 0-10.295-4.61-10.295-10.295V160.678c0-5.686 4.61-10.295 10.295-10.295h98.223c5.686 0 10.295 4.61 10.295 10.295v162.567c0 5.686-4.609 10.295-10.295 10.295z"/><path fill="#fff" d="M310.395 249.46h-80.563a6.643 6.643 0 0 1-6.643-6.644v-70.785a6.643 6.643 0 0 1 6.643-6.643h80.563a6.643 6.643 0 0 1 6.644 6.643v70.785a6.643 6.643 0 0 1-6.644 6.644z"/><linearGradient id="e" x1="230.58" x2="303" y1="201.938" y2="201.938" gradientUnits="userSpaceOnUse"><stop offset="0" stop-color="#909eff"/><stop offset="1" stop-color="#6977e3"/></linearGradient><path fill="url(#e)" d="m302.79 193.657-12.255 29.079a2.57 2.57 0 0 1-2.353 1.562h-30.78c-1.017 0-1.927-.623-2.332-1.562l-12.622-30.453c-.988-1.621-3.776-5.21-10.101-7.502a2.674 2.674 0 0 1-1.602-3.44 2.671 2.671 0 0 1 3.43-1.601c8.441 3.064 12.04 8.263 13.225 10.398h53.058c1.819 0 3.054 1.858 2.333 3.519z"/><linearGradient id="f" x1="275.424" x2="288.096" y1="234.169" y2="234.169" gradientUnits="userSpaceOnUse"><stop offset="0" stop-color="#909eff"/><stop offset="1" stop-color="#6977e3"/></linearGradient><circle cx="281.76" cy="234.169" r="6.336" fill="url(#f)"/><linearGradient id="g" x1="256.716" x2="269.388" y1="234.169" y2="234.169" gradientUnits="userSpaceOnUse"><stop offset="0" stop-color="#909eff"/><stop offset="1" stop-color="#6977e3"/></linearGradient><circle cx="263.052" cy="234.169" r="6.336" fill="url(#g)"/><path fill="#fff" d="m268.008 214.281-3.79-3.79c-2.39-2.39 1.222-5.992 3.607-3.609l1.987 1.987 9.372-9.372c2.39-2.388 5.992 1.223 3.608 3.608l-11.176 11.176a2.551 2.551 0 0 1-3.608 0z"/><linearGradient id="h" x1="227.681" x2="312.547" y1="264.417" y2="264.417" gradientUnits="userSpaceOnUse"><stop offset="0" stop-color="#d1deff"/><stop offset="1" stop-color="#b2c7ff"/></linearGradient><path fill="url(#h)" d="M227.681 260.543h61.231v7.749h-61.231z"/><linearGradient id="i" x1="227.681" x2="312.547" y1="264.417" y2="264.417" gradientUnits="userSpaceOnUse"><stop offset="0" stop-color="#d1deff"/><stop offset="1" stop-color="#b2c7ff"/></linearGradient><path fill="url(#i)" d="M300.756 260.543h11.79v7.749h-11.79z"/><linearGradient id="j" x1="227.681" x2="312.547" y1="279.066" y2="279.066" gradientUnits="userSpaceOnUse"><stop offset="0" stop-color="#d1deff"/><stop offset="1" stop-color="#b2c7ff"/></linearGradient><path fill="url(#j)" d="M257.745 275.191h54.801v7.749h-54.801z"/><linearGradient id="k" x1="227.681" x2="312.547" y1="279.066" y2="279.066" gradientUnits="userSpaceOnUse"><stop offset="0" stop-color="#d1deff"/><stop offset="1" stop-color="#b2c7ff"/></linearGradient><path fill="url(#k)" d="M227.681 275.191h19.155v7.749h-19.155z"/><linearGradient id="l" x1="227.681" x2="312.547" y1="293.715" y2="293.715" gradientUnits="userSpaceOnUse"><stop offset="0" stop-color="#d1deff"/><stop offset="1" stop-color="#b2c7ff"/></linearGradient><path fill="url(#l)" d="M300.445 289.84h12.102v7.749h-12.102z"/><linearGradient id="m" x1="227.681" x2="312.547" y1="293.715" y2="293.715" gradientUnits="userSpaceOnUse"><stop offset="0" stop-color="#d1deff"/><stop offset="1" stop-color="#b2c7ff"/></linearGradient><path fill="url(#m)" d="M227.681 289.84h39.414v7.749h-39.414z"/><linearGradient id="n" x1="227.681" x2="312.547" y1="293.715" y2="293.715" gradientUnits="userSpaceOnUse"><stop offset="0" stop-color="#d1deff"/><stop offset="1" stop-color="#b2c7ff"/></linearGradient><path fill="url(#n)" d="M275.355 289.84h10.13v7.749h-10.13z"/><linearGradient id="o" x1="227.681" x2="312.547" y1="308.364" y2="308.364" gradientUnits="userSpaceOnUse"><stop offset="0" stop-color="#d1deff"/><stop offset="1" stop-color="#b2c7ff"/></linearGradient><path fill="url(#o)" d="M227.681 304.489h17.129v7.749h-17.129z"/><linearGradient id="p" x1="227.681" x2="312.547" y1="308.364" y2="308.364" gradientUnits="userSpaceOnUse"><stop offset="0" stop-color="#d1deff"/><stop offset="1" stop-color="#b2c7ff"/></linearGradient><path fill="url(#p)" d="M258.992 304.489h28.674v7.749h-28.674z"/><linearGradient id="q" x1="242.148" x2="253.823" y1="358.564" y2="358.564" gradientUnits="userSpaceOnUse"><stop offset="0" stop-color="#d1deff"/><stop offset="1" stop-color="#b2c7ff"/></linearGradient><path fill="url(#q)" d="M253.823 354.987v7.153a2.26 2.26 0 0 1-2.257 2.258h-7.16a2.26 2.26 0 0 1-2.258-2.258v-7.153a2.26 2.26 0 0 1 2.258-2.257h7.16a2.26 2.26 0 0 1 2.257 2.257z"/><linearGradient id="r" x1="260.616" x2="272.291" y1="358.564" y2="358.564" gradientUnits="userSpaceOnUse"><stop offset="0" stop-color="#d1deff"/><stop offset="1" stop-color="#b2c7ff"/></linearGradient><path fill="url(#r)" d="M272.29 354.987v7.153a2.26 2.26 0 0 1-2.257 2.258h-7.16a2.26 2.26 0 0 1-2.257-2.258v-7.153a2.26 2.26 0 0 1 2.258-2.257h7.16a2.26 2.26 0 0 1 2.257 2.257z"/><linearGradient id="s" x1="279.084" x2="290.759" y1="358.564" y2="358.564" gradientUnits="userSpaceOnUse"><stop offset="0" stop-color="#d1deff"/><stop offset="1" stop-color="#b2c7ff"/></linearGradient><path fill="url(#s)" d="M290.759 354.987v7.153a2.26 2.26 0 0 1-2.258 2.258h-7.16a2.26 2.26 0 0 1-2.257-2.258v-7.153a2.26 2.26 0 0 1 2.257-2.257h7.16a2.26 2.26 0 0 1 2.258 2.257z"/><linearGradient id="t" x1="69" x2="184.339" y1="183.376" y2="183.376" gradientUnits="userSpaceOnUse"><stop offset="0" stop-color="#cedcf9"/><stop offset="1" stop-color="#c3d2ff"/></linearGradient><path fill="url(#t)" d="M69 226.716c0 5.058 4.1 9.169 9.169 9.169h6.694V130.867H78.17c-5.07 0-9.169 4.111-9.169 9.17"/><path d="M195.41 141.708v86.683a9.182 9.182 0 0 1-5.314 8.325 9.135 9.135 0 0 1-3.847.845h-10.447V135.85c0-1.127.088-2.234.253-3.313h10.194c1.428 0 2.778.33 3.983.904a9.194 9.194 0 0 1 5.177 8.266z" opacity=".1"/><path fill="#fff" d="M187.304 140.033v86.68c0 5.057-4.1 9.168-9.158 9.168H81.133c-5.07 0-9.169-4.11-9.169-9.168v-86.68c0-5.058 4.1-9.17 9.17-9.17h97.012c5.058 0 9.158 4.112 9.158 9.17z"/><path fill="#fff" d="M187.304 140.033v10.358H71.964v-10.358c0-5.058 4.1-9.17 9.17-9.17h97.012c5.058 0 9.158 4.112 9.158 9.17z"/><linearGradient id="u" x1="79.675" x2="85.146" y1="141.763" y2="141.763" gradientUnits="userSpaceOnUse"><stop offset="0" stop-color="#f34b6d"/><stop offset="1" stop-color="#e24067"/></linearGradient><path fill="url(#u)" d="M85.146 141.763a2.736 2.736 0 1 1-5.47 0 2.735 2.735 0 1 1 5.47 0z"/><path fill="#3dcfa4" d="M92.594 141.763a2.736 2.736 0 1 1-5.47 0 2.735 2.735 0 1 1 5.47 0z"/><linearGradient id="v" x1="94.572" x2="100.043" y1="141.763" y2="141.763" gradientUnits="userSpaceOnUse"><stop offset="0" stop-color="#fadf68"/><stop offset="1" stop-color="#eac250"/></linearGradient><path fill="url(#v)" d="M100.043 141.763a2.736 2.736 0 1 1-5.47 0 2.735 2.735 0 1 1 5.47 0z"/><linearGradient id="w" x1="3204.059" x2="3174.335" y1="-719.266" y2="-689.542" gradientTransform="rotate(45 592.922 -3958.995)" gradientUnits="userSpaceOnUse"><stop offset="0" stop-color="#f34b6d"/><stop offset="1" stop-color="#e24067"/></linearGradient><path fill="url(#w)" d="m148.44 185.124-8.268 3.208-4.44 1.722-5.443 2.115-4.165 1.615-5.212 2.021-4.026 1.567-3.876 1.501c-3.924 1.525-7.79-2.341-6.266-6.266l1.502-3.876 1.563-4.029 2.02-5.212 1.616-4.158 2.115-5.45 1.719-4.443 3.208-8.268 27.953 27.953z"/><path fill="#373a50" d="M148.635 184.934c-1.183 1.183-4.69-.234-9.042-3.36a57.949 57.949 0 0 1-1.72-1.292c-2.121-1.654-4.378-3.652-6.636-5.91-7.72-7.719-12.445-15.507-10.558-17.395 1.888-1.887 9.676 2.839 17.395 10.558 3.945 3.944 7.11 7.908 9.005 11.093.382.642.713 1.252.992 1.823 1.035 2.144 1.294 3.753.564 4.483z"/><linearGradient id="x" x1="3197.897" x2="3180.494" y1="-713.735" y2="-696.331" gradientTransform="rotate(45 592.922 -3958.995)" gradientUnits="userSpaceOnUse"><stop offset="0" stop-color="#fadf68"/><stop offset="1" stop-color="#eac250"/></linearGradient><path fill="url(#x)" d="m140.172 188.332-4.44 1.722c-3.192-1.894-7.175-5.066-11.142-9.033-3.964-3.964-7.14-7.943-9.03-11.138l1.719-4.444c1.648 3.406 5.254 8.167 9.99 12.903 4.736 4.735 9.497 8.342 12.903 9.99z"/><linearGradient id="y" x1="3195.725" x2="3182.673" y1="-701.93" y2="-688.877" gradientTransform="rotate(45 592.922 -3958.995)" gradientUnits="userSpaceOnUse"><stop offset="0" stop-color="#fadf68"/><stop offset="1" stop-color="#eac250"/></linearGradient><path fill="url(#y)" d="m130.289 192.17-4.165 1.614c-2.397-1.787-5.018-4.057-7.629-6.668-2.61-2.611-4.878-5.229-6.665-7.626l1.615-4.158c1.907 2.776 4.564 5.945 7.726 9.108 3.166 3.165 6.338 5.825 9.118 7.73z"/><linearGradient id="z" x1="3193.676" x2="3184.72" y1="-690.718" y2="-681.761" gradientTransform="rotate(45 592.922 -3958.995)" gradientUnits="userSpaceOnUse"><stop offset="0" stop-color="#fadf68"/><stop offset="1" stop-color="#eac250"/></linearGradient><path fill="url(#z)" d="m120.912 195.805-4.026 1.567a78.438 78.438 0 0 1-4.489-4.158 78.108 78.108 0 0 1-4.151-4.483l1.563-4.029a74.508 74.508 0 0 0 5.268 5.832 74.662 74.662 0 0 0 5.835 5.271z"/><linearGradient id="A" x1="3216.699" x2="3199.688" y1="-725.705" y2="-708.694" gradientTransform="rotate(45 592.922 -3958.995)" gradientUnits="userSpaceOnUse"><stop offset="0" stop-color="#fadf68"/><stop offset="1" stop-color="#eac250"/></linearGradient><path fill="url(#A)" d="M161.675 186.257a.917.917 0 0 1-1.298.013c-4.145-4.035-8.517-5.514-12.306-5.819-3.552-.282-6.597.467-8.478 1.122a57.949 57.949 0 0 1-1.72-1.29c1.684-.672 5.077-1.755 9.206-1.655 4.417.104 9.675 1.56 14.58 6.328.35.35.37.935.016 1.301z"/><linearGradient id="B" x1="3222.346" x2="3220.426" y1="-724.038" y2="-722.118" gradientTransform="rotate(45 592.922 -3958.995)" gradientUnits="userSpaceOnUse"><stop offset="0" stop-color="#fadf68"/><stop offset="1" stop-color="#eac250"/></linearGradient><circle cx="163.387" cy="187.749" r="1.358" fill="url(#B)"/><linearGradient id="C" x1="3187.072" x2="3195.21" y1="-725.086" y2="-725.086" gradientTransform="rotate(45 592.922 -3958.995)" gradientUnits="userSpaceOnUse"><stop offset="0" stop-color="#909eff"/><stop offset="1" stop-color="#6977e3"/></linearGradient><path fill="url(#C)" d="M132.425 170.353a.918.918 0 0 1 1.211-.464c.962.429 1.955.872 2.957 1.05 2.463.44 3.826-1.012 3.576-2.249-.08-.393-.338-.796-.612-1.222-.125-.195-.25-.39-.364-.59-.667-1.166-.737-2.326-.193-3.182.827-1.3 2.316-1.292 3.809-1.02 3.978.725 4.319.821 4.847.771 1.002-.095 1.064-.876.606-1.684-.332-.585-1.012-1.277-1.456-1.992-1.32-2.126-.433-4.227 1.756-4.648.694-.133 1.372-.07 1.97-.014a.918.918 0 0 1-.172 1.827c-.522-.049-1.015-.095-1.452-.01-.366.07-.661.241-.79.458-.227.388-.01 1.007.246 1.419.413.663 1.017 1.214 1.494 2.055 1.126 1.985.313 4.194-2.03 4.416-.82.077-1.219-.04-5.348-.793-.587-.107-1.611-.302-1.932.2-.159.25-.066.755.238 1.286.098.172.207.341.316.51.336.525.717 1.12.865 1.85.51 2.519-1.932 5.09-5.696 4.419-1.222-.218-2.32-.708-3.382-1.181a.918.918 0 0 1-.464-1.212z"/><linearGradient id="D" x1="3191.709" x2="3194.291" y1="-738.04" y2="-738.04" gradientTransform="rotate(45 592.922 -3958.995)" gradientUnits="userSpaceOnUse"><stop offset="0" stop-color="#909eff"/><stop offset="1" stop-color="#6977e3"/></linearGradient><circle cx="153.896" cy="157.097" r="1.291" fill="url(#D)"/><linearGradient id="E" x1="3166.846" x2="3169.429" y1="-726.378" y2="-726.378" gradientTransform="rotate(45 592.922 -3958.995)" gradientUnits="userSpaceOnUse"><stop offset="0" stop-color="#3dcfa4"/><stop offset="1" stop-color="#30bb93"/></linearGradient><circle cx="128.069" cy="147.763" r="1.291" fill="url(#E)"/><linearGradient id="F" x1="3170.415" x2="3181.345" y1="-718.964" y2="-718.964" gradientTransform="rotate(45 592.922 -3958.995)" gradientUnits="userSpaceOnUse"><stop offset="0" stop-color="#3dcfa4"/><stop offset="1" stop-color="#30bb93"/></linearGradient><path fill="url(#F)" d="M126.392 165.567c.048-.082 4.686-8.269 2.176-14.278a.917.917 0 1 1 1.693-.707c2.861 6.851-2.067 15.535-2.279 15.901a.917.917 0 0 1-1.59-.916z"/><linearGradient id="G" x1="3201.738" x2="3207.114" y1="-728.648" y2="-728.648" gradientTransform="rotate(45 592.922 -3958.995)" gradientUnits="userSpaceOnUse"><stop offset="0" stop-color="#3dcfa4"/><stop offset="1" stop-color="#30bb93"/></linearGradient><path fill="url(#G)" d="m154.839 173.16-2.106-.144 1.256-1.693.144-2.106 1.696 1.257 2.106.144-1.257 1.696-.143 2.104z"/><linearGradient id="H" x1="3179.712" x2="3184.024" y1="-728.308" y2="-728.308" gradientTransform="rotate(45 592.922 -3958.995)" gradientUnits="userSpaceOnUse"><stop offset="0" stop-color="#fadf68"/><stop offset="1" stop-color="#eac250"/></linearGradient><path fill="url(#H)" d="m138.745 157.185-1.69-.116 1.008-1.359.116-1.69 1.36 1.01 1.69.115-1.008 1.36-.115 1.688z"/><linearGradient id="I" x1="3211.706" x2="3216.018" y1="-709.804" y2="-709.804" gradientTransform="rotate(45 592.922 -3958.995)" gradientUnits="userSpaceOnUse"><stop offset="0" stop-color="#f34b6d"/><stop offset="1" stop-color="#e24067"/></linearGradient><path fill="url(#I)" d="m148.284 192.893-1.69-.116 1.008-1.359.116-1.69 1.36 1.01 1.69.115-1.008 1.36-.115 1.688z"/><linearGradient id="J" x1="3163.096" x2="3167.409" y1="-709.804" y2="-709.804" gradientTransform="rotate(45 592.922 -3958.995)" gradientUnits="userSpaceOnUse"><stop offset="0" stop-color="#909eff"/><stop offset="1" stop-color="#6977e3"/></linearGradient><path fill="url(#J)" d="m113.912 158.52-1.69-.116 1.008-1.358.116-1.69 1.36 1.01 1.69.115-1.009 1.36-.115 1.688z"/><linearGradient id="K" x1="80.876" x2="87.479" y1="213.877" y2="213.877" gradientUnits="userSpaceOnUse"><stop offset="0" stop-color="#909eff"/><stop offset="1" stop-color="#6977e3"/></linearGradient><path fill="url(#K)" d="M85.9 210.94c-.492-.288-1.072-.434-1.723-.434-.65 0-1.23.146-1.725.433-.496.29-.885.694-1.154 1.203-.268.502-.41 1.084-.422 1.739.013.646.154 1.228.422 1.73.27.51.658.914 1.154 1.203.494.287 1.075.433 1.725.433.651 0 1.23-.146 1.722-.434a3.032 3.032 0 0 0 1.156-1.206c.269-.505.411-1.086.424-1.735-.013-.64-.155-1.22-.424-1.726a3.035 3.035 0 0 0-1.156-1.206zm-1.723.792c.419 0 .783.093 1.086.278.301.184.535.439.693.755.162.325.245.699.245 1.112 0 .413-.083.786-.245 1.11a1.81 1.81 0 0 1-.693.756c-.61.371-1.578.367-2.174 0a1.825 1.825 0 0 1-.69-.755 2.462 2.462 0 0 1-.244-1.111c0-.413.083-.787.245-1.112.161-.321.387-.569.69-.756.298-.184.664-.277 1.087-.277z"/><linearGradient id="L" x1="88.753" x2="94.031" y1="213.898" y2="213.898" gradientUnits="userSpaceOnUse"><stop offset="0" stop-color="#909eff"/><stop offset="1" stop-color="#6977e3"/></linearGradient><path fill="url(#L)" d="M94.031 212.605c0-.603-.23-1.097-.68-1.469-.438-.36-1.088-.543-1.932-.543h-2.031a.617.617 0 0 0-.454.193.642.642 0 0 0-.18.45v5.333c0 .174.063.33.183.45h.001c.241.24.654.242.902.005a.615.615 0 0 0 .192-.455v-1.778h1.56c.333 0 .578.074.728.222.164.16.265.337.307.54.049.226.073.48.073.754v.262c0 .18.063.338.18.455.117.117.279.18.465.18a.627.627 0 0 0 .634-.635v-.401c0-.422-.082-.857-.245-1.292a1.47 1.47 0 0 0-.523-.7c.194-.13.357-.29.486-.481a1.91 1.91 0 0 0 .334-1.09zm-1.278.06c0 .28-.107.483-.333.635-.25.17-.605.256-1.054.256h-1.334v-1.728h1.291c.69 0 1.007.126 1.15.231.19.141.28.334.28.607z"/><linearGradient id="M" x1="95.393" x2="101.097" y1="213.877" y2="213.877" gradientUnits="userSpaceOnUse"><stop offset="0" stop-color="#909eff"/><stop offset="1" stop-color="#6977e3"/></linearGradient><path fill="url(#M)" d="M99.595 211.07c-.5-.317-1.111-.477-1.816-.477h-1.752a.617.617 0 0 0-.454.193.642.642 0 0 0-.18.45v5.29a.625.625 0 0 0 .634.634h1.752c.706 0 1.317-.16 1.816-.477.498-.316.877-.731 1.129-1.234a3.492 3.492 0 0 0 0-3.145 3.09 3.09 0 0 0-1.13-1.234zm.232 2.807c0 .408-.089.77-.263 1.077a1.824 1.824 0 0 1-.742.718c-.322.173-.705.262-1.139.262h-1.012v-4.115h1.012c.434 0 .817.089 1.139.263.323.174.565.409.742.717.174.307.263.67.263 1.078z"/><linearGradient id="N" x1="102.372" x2="107.119" y1="213.877" y2="213.877" gradientUnits="userSpaceOnUse"><stop offset="0" stop-color="#909eff"/><stop offset="1" stop-color="#6977e3"/></linearGradient><path fill="url(#N)" d="M106.501 211.82c.166 0 .316-.06.435-.174a.593.593 0 0 0 .183-.435.606.606 0 0 0-.181-.439.604.604 0 0 0-.437-.179h-3.494a.617.617 0 0 0-.454.193.642.642 0 0 0-.18.45v5.29a.625.625 0 0 0 .634.634h3.494a.614.614 0 0 0 .435-.172.593.593 0 0 0 .183-.436.605.605 0 0 0-.181-.438.604.604 0 0 0-.437-.18h-2.85v-1.449h2.536c.167 0 .318-.06.434-.172a.589.589 0 0 0 .184-.436.606.606 0 0 0-.18-.437.604.604 0 0 0-.438-.18h-2.536v-1.44h2.85z"/><linearGradient id="O" x1="108.366" x2="113.644" y1="213.898" y2="213.898" gradientUnits="userSpaceOnUse"><stop offset="0" stop-color="#909eff"/><stop offset="1" stop-color="#6977e3"/></linearGradient><path fill="url(#O)" d="M113.644 212.605c0-.603-.23-1.097-.68-1.469-.438-.36-1.088-.543-1.932-.543H109a.617.617 0 0 0-.454.193.642.642 0 0 0-.18.45v5.333c0 .174.063.33.182.45h.002c.24.24.654.242.902.005a.615.615 0 0 0 .192-.455v-1.778h1.56c.333 0 .578.074.728.222.164.16.265.337.307.54.049.226.073.48.073.754v.262c0 .18.063.338.18.455.117.117.279.18.465.18a.627.627 0 0 0 .634-.635v-.401c0-.422-.082-.857-.246-1.292a1.47 1.47 0 0 0-.522-.7c.194-.13.357-.29.486-.481a1.91 1.91 0 0 0 .334-1.09zm-1.278.06c0 .28-.107.483-.333.635-.25.17-.606.256-1.054.256h-1.334v-1.728h1.291c.69 0 1.007.126 1.15.231.19.141.28.334.28.607z"/><linearGradient id="P" x1="117.707" x2="118.986" y1="213.878" y2="213.878" gradientUnits="userSpaceOnUse"><stop offset="0" stop-color="#909eff"/><stop offset="1" stop-color="#6977e3"/></linearGradient><path fill="url(#P)" d="M117.887 210.742a.642.642 0 0 0-.18.45v5.377c0 .174.064.33.183.45h.002c.12.121.276.185.45.185a.643.643 0 0 0 .451-.18.615.615 0 0 0 .193-.455v-5.376a.63.63 0 0 0-.19-.456.645.645 0 0 0-.909.005z"/><linearGradient id="Q" x1="120.225" x2="125.259" y1="213.877" y2="213.877" gradientUnits="userSpaceOnUse"><stop offset="0" stop-color="#909eff"/><stop offset="1" stop-color="#6977e3"/></linearGradient><path fill="url(#Q)" d="M124.08 213.624a9.017 9.017 0 0 0-1.144-.341 7.977 7.977 0 0 1-.815-.224 1.159 1.159 0 0 1-.426-.25.434.434 0 0 1-.13-.335c0-.228.1-.394.314-.524.52-.315 1.516-.282 2.307-.009.314.128.513.034.668-.147.1-.119.152-.26.152-.41a.584.584 0 0 0-.402-.576 5.216 5.216 0 0 0-1.818-.302c-.51 0-.957.088-1.328.263a2.04 2.04 0 0 0-.872.733c-.2.31-.3.656-.3 1.033 0 .439.127.799.378 1.07.234.254.517.446.84.572.3.117.692.238 1.168.361.346.091.613.17.8.235.16.056.297.132.403.226.08.07.115.15.115.255 0 .207 0 .758-1.283.758a3.938 3.938 0 0 1-1.62-.337.616.616 0 0 0-.698.133.615.615 0 0 0-.05.774.631.631 0 0 0 .278.228c.671.29 1.4.437 2.169.437.471 0 .897-.08 1.263-.237a2.08 2.08 0 0 0 .885-.687c.216-.3.325-.642.325-1.017 0-.455-.122-.825-.36-1.1a2.069 2.069 0 0 0-.818-.582z"/><linearGradient id="R" x1="128.764" x2="134.478" y1="213.877" y2="213.877" gradientUnits="userSpaceOnUse"><stop offset="0" stop-color="#909eff"/><stop offset="1" stop-color="#6977e3"/></linearGradient><path fill="url(#R)" d="M130.98 212.025c.314-.183.702-.276 1.155-.276.296 0 .558.033.779.096.226.064.462.16.708.289.222.11.52.064.693-.116a.567.567 0 0 0 .163-.398.593.593 0 0 0-.316-.543 4.725 4.725 0 0 0-.978-.422c-.332-.099-.711-.15-1.128-.15a3.46 3.46 0 0 0-1.68.41c-.5.274-.899.672-1.184 1.184-.284.507-.428 1.105-.428 1.778s.144 1.27.428 1.778c.285.512.684.91 1.183 1.184a3.46 3.46 0 0 0 1.681.408c.418 0 .797-.05 1.128-.149.328-.098.657-.24.974-.42a.595.595 0 0 0 .32-.545.569.569 0 0 0-.168-.408.615.615 0 0 0-.693-.103c-.24.125-.476.222-.703.287a2.863 2.863 0 0 1-.779.095c-.453 0-.841-.093-1.153-.276a1.735 1.735 0 0 1-.7-.744 2.47 2.47 0 0 1-.24-1.107c0-.414.081-.787.24-1.108.158-.317.387-.56.699-.744z"/><linearGradient id="S" x1="135.081" x2="141.684" y1="213.877" y2="213.877" gradientUnits="userSpaceOnUse"><stop offset="0" stop-color="#909eff"/><stop offset="1" stop-color="#6977e3"/></linearGradient><path fill="url(#S)" d="M140.104 210.94c-.491-.288-1.07-.434-1.721-.434-.65 0-1.23.146-1.726.433-.496.29-.885.694-1.154 1.203-.268.502-.41 1.084-.422 1.739.013.646.154 1.228.422 1.73.27.51.658.914 1.154 1.203.494.287 1.075.433 1.726.433s1.23-.146 1.721-.434a3.032 3.032 0 0 0 1.156-1.206c.269-.505.411-1.086.424-1.735-.013-.64-.155-1.22-.424-1.726a3.035 3.035 0 0 0-1.156-1.206zm-1.721.792c.418 0 .782.093 1.085.278.301.184.535.439.693.755.162.325.245.699.245 1.112 0 .413-.083.786-.245 1.11a1.81 1.81 0 0 1-.693.756c-.61.371-1.578.367-2.174 0a1.825 1.825 0 0 1-.69-.755 2.462 2.462 0 0 1-.244-1.111c0-.413.083-.787.245-1.112.161-.321.387-.569.69-.756.298-.184.664-.277 1.088-.277z"/><linearGradient id="T" x1="142.958" x2="150.171" y1="213.877" y2="213.877" gradientUnits="userSpaceOnUse"><stop offset="0" stop-color="#909eff"/><stop offset="1" stop-color="#6977e3"/></linearGradient><path fill="url(#T)" d="M149.361 210.55h-.287a.769.769 0 0 0-.461.15.893.893 0 0 0-.296.367l-1.752 4.37-1.757-4.38a.887.887 0 0 0-.292-.357.769.769 0 0 0-.46-.15h-.288a.782.782 0 0 0-.574.242.797.797 0 0 0-.236.575v5.202c0 .174.064.33.184.45h.001c.241.24.654.242.902.005a.615.615 0 0 0 .192-.455v-3.701l1.546 3.822c.066.155.171.28.313.374a.856.856 0 0 0 1.252-.378l1.544-3.818v3.701c0 .175.066.332.192.455.124.117.28.18.452.18a.627.627 0 0 0 .635-.635v-5.202a.799.799 0 0 0-.235-.575.777.777 0 0 0-.575-.243z"/><linearGradient id="U" x1="151.811" x2="157.001" y1="213.898" y2="213.898" gradientUnits="userSpaceOnUse"><stop offset="0" stop-color="#909eff"/><stop offset="1" stop-color="#6977e3"/></linearGradient><path fill="url(#U)" d="M155.897 210.9c-.382-.203-.875-.307-1.464-.307h-1.988a.617.617 0 0 0-.454.193.642.642 0 0 0-.18.45v5.333c0 .174.063.33.183.45h.002c.12.121.276.185.45.185a.643.643 0 0 0 .45-.18.615.615 0 0 0 .193-.455v-1.622h1.344c.59 0 1.082-.103 1.463-.307.392-.208.678-.483.851-.816.169-.323.254-.678.254-1.054s-.085-.73-.254-1.053c-.173-.334-.459-.608-.85-.817zm-.174 1.87c0 .27-.093.488-.285.668-.193.182-.559.274-1.084.274h-1.265v-1.884h1.265c.526 0 .89.092 1.084.274.192.18.285.399.285.668z"/><linearGradient id="V" x1="158.102" x2="162.63" y1="213.856" y2="213.856" gradientUnits="userSpaceOnUse"><stop offset="0" stop-color="#909eff"/><stop offset="1" stop-color="#6977e3"/></linearGradient><path fill="url(#V)" d="M161.987 215.881h-2.607v-4.688a.63.63 0 0 0-.19-.456.645.645 0 0 0-.908.005.642.642 0 0 0-.18.45v5.177c0 .213.08.407.232.559a.762.762 0 0 0 .56.232h3.093a.641.641 0 0 0 .45-.18.615.615 0 0 0 .193-.454.629.629 0 0 0-.19-.456.63.63 0 0 0-.453-.189z"/><linearGradient id="W" x1="163.556" x2="168.303" y1="213.877" y2="213.877" gradientUnits="userSpaceOnUse"><stop offset="0" stop-color="#909eff"/><stop offset="1" stop-color="#6977e3"/></linearGradient><path fill="url(#W)" d="M167.685 211.82c.166 0 .316-.06.435-.174a.593.593 0 0 0 .183-.435.606.606 0 0 0-.181-.439.604.604 0 0 0-.437-.179h-3.494a.617.617 0 0 0-.455.193.642.642 0 0 0-.18.45v5.29a.625.625 0 0 0 .635.634h3.494a.614.614 0 0 0 .435-.172.593.593 0 0 0 .183-.436.605.605 0 0 0-.181-.438.604.604 0 0 0-.437-.18h-2.85v-1.449h2.536c.167 0 .318-.06.434-.172a.589.589 0 0 0 .184-.436.606.606 0 0 0-.18-.437.604.604 0 0 0-.438-.18h-2.536v-1.44h2.85z"/><linearGradient id="X" x1="168.819" x2="174.385" y1="213.898" y2="213.898" gradientUnits="userSpaceOnUse"><stop offset="0" stop-color="#909eff"/><stop offset="1" stop-color="#6977e3"/></linearGradient><path fill="url(#X)" d="M173.768 210.593h-4.34a.612.612 0 0 0-.609.618.6.6 0 0 0 .609.608h1.535v4.75c0 .174.063.33.183.45h.002c.12.121.276.185.45.185a.643.643 0 0 0 .45-.18.615.615 0 0 0 .193-.455v-4.75h1.527c.166 0 .315-.06.434-.173a.593.593 0 0 0 .183-.435.606.606 0 0 0-.181-.439.604.604 0 0 0-.436-.179z"/><linearGradient id="Y" x1="175.293" x2="180.04" y1="213.877" y2="213.877" gradientUnits="userSpaceOnUse"><stop offset="0" stop-color="#909eff"/><stop offset="1" stop-color="#6977e3"/></linearGradient><path fill="url(#Y)" d="M179.422 215.934h-2.85v-1.449h2.536c.167 0 .318-.06.434-.172a.589.589 0 0 0 .184-.436.606.606 0 0 0-.18-.437.604.604 0 0 0-.438-.18h-2.536v-1.44h2.85c.166 0 .316-.06.435-.174a.593.593 0 0 0 .183-.435.606.606 0 0 0-.182-.439.604.604 0 0 0-.436-.179h-3.494a.617.617 0 0 0-.455.193.642.642 0 0 0-.18.45v5.29a.625.625 0 0 0 .635.634h3.494a.614.614 0 0 0 .435-.172.594.594 0 0 0 .183-.436.605.605 0 0 0-.182-.438.604.604 0 0 0-.436-.18z"/><path fill="#ffdad9" d="m468.639 450.004 15.907-.17.776-7.548.69-6.598-17.823-.516.304 14.705c.01.073.072.127.146.127z"/><path fill="#373a50" d="m484.923 449.366 2.754 11.508a4.017 4.017 0 0 1-3.806 4.786c-10.154.34-30.111.004-33.796-.03a.548.548 0 0 1-.542-.527c-.164-3.521 2.174-5.76 5.62-7.49l13.281-8.945a.145.145 0 0 1 .082-.02l16.407.718z"/><path fill="#ffdad9" d="m522.85 450.004 15.908-.17-.988-15.138-15.37.476.305 14.705c.01.073.072.127.146.127z"/><path fill="#373a50" d="m539.134 449.366 2.755 11.508a4.017 4.017 0 0 1-3.806 4.786c-10.154.34-30.111.004-33.796-.03a.548.548 0 0 1-.542-.527c-.165-3.521 2.174-5.76 5.619-7.49l13.282-8.945a.145.145 0 0 1 .082-.02l16.406.718z"/><path fill="#3a4ac3" d="m519.82 441.24-28.076-101.354-2.215 100.774c0 2.57-24.703 2.57-24.703 0l-5.912-133.15 64.25-4 18.8 137.15c0 3.57-22.144 4.15-22.144.58z"/><path fill="#ffdad9" d="M470.38 208.4c-8.899 3.148-20.995 29.911-20.458 30.024.715.15-31.253-25.372-31.253-25.372l-8.566 9.335s28.755 42.212 44.231 43.74c8.857.873 28.165-26.776 28.165-26.776l-12.12-30.95z"/><path fill="#f34b6d" d="M528.56 310.363c-.011 1.543-4.987 2.706-12.31 3.488-16.513 1.771-44.988 1.652-55.353-.25h-.01c-2.467-.456-3.912-1.01-3.912-1.673l7.638-41.87c.467-4.433-2.499-12.332-5.117-17.547-.826-1.65-1.608-3.03-2.25-3.954-2.53-3.65-3.834-9.463.588-13.82 2.933-2.889 4.965-6.572 5.453-10.668.587-4.986 1.684-10.995 3.64-13.167 7.822-8.757 47.911-8.963 56.32-1.358.924.836 1.673 1.955 2.26 3.313 6.627 15.015-5.432 58.732-5.432 58.732l8.485 38.774z"/><path fill="#e24067" d="M462.708 254.76c4.935 3.15 7.692 8.787 6.88 14.585-1.079 7.694-2.155 15.385-3.237 23.082-1.021 7.224-2.183 14.797-5.454 21.174h-.01c-2.467-.456-3.912-1.01-3.912-1.673l7.638-41.87c.467-4.433-2.499-12.332-5.117-17.547.087-.108.163-.206.25-.304.857.992 1.86 1.85 2.962 2.552zM528.56 310.363c-.011 1.543-4.987 2.706-12.31 3.488-.608-2.651-.977-5.378-1.434-8.061a114.704 114.704 0 0 0-7.735-26.129c-1.619-3.737-3.346-8.365-.815-11.56 1.032-1.292 2.575-2.03 3.944-2.954 5.052-3.445 7.735-10.05 6.53-16.036-.685-3.379-2.445-6.421-3.597-9.658-2.172-6.095-2.096-12.961.196-19.012l6.823-8.007a15.022 15.022 0 0 1 5.345.423c6.627 15.015-5.432 58.732-5.432 58.732l8.485 38.774z"/><path fill="#ffdad9" d="M523.524 213.371c15.196 4.053 28.418 51.948 25.035 57.746-6.83 11.707-66.361 15.06-66.361 15.06l.003-11.35 45.833-11.644s-15.019-27.691-14.84-40.695c.053-3.824 6.634-10.102 10.33-9.117z"/><path fill="#ffdad9" d="M461.889 283.3c2.365 9.537 20.312 2.88 20.312 2.88v-11.353s-8.012-8.534-9.72-7.265c-2.988 2.22.366 5.365.366 5.365s-13.172 1.448-10.958 10.374zM484.198 192.25s.096 2.073.288 4.793c.12 1.678.276 3.607.48 5.44.095.767.191 1.51.287 2.217.443 3.104-.839 5.752.24 6.1 2.863.91 11.719-6.723 11.719-6.723v-17.279l-13.014 5.452z"/><path fill="#fecdcb" d="M484.486 197.043c.12 1.678.276 3.607.48 5.44l6.973-6.818.396-.383-7.849 1.761z"/><path d="M478.183 181.322c5.608 3.99 16.069-3.367 16.069-3.367l.875-15.206-17.725 3.43s-4.839 11.153.781 15.143z"/><path fill="#ffdad9" d="M501.367 187.553s-14.492 16.608-24.141 10.436c-5.434-3.475-3.452-19.535 1.621-27.606 2.513-4.007 6.044-7.272 10.346-8.585 12.973-3.97 17.275-.315 17.275-.315l-4.711 17.723s5.54-3.503 6.244 1.39c.704 4.882-6.634 6.957-6.634 6.957z"/><path d="M474.352 167.789c4.509 4.84 19.62 1.89 20.495 1.17-1.712 7.655 6.267 11.108 6.74 10.25 0 0 5.536-3.51 6.243 1.39.707 4.878-6.639 6.95-6.639 6.95l-3.99 2.026v14.499s34.259 19.088 37.434 15.661c3.164-3.415-14.523-22.096-15.685-30.616-.983-7.154 4.625-20.754-5.752-28.279-9.083-6.59-27.206-9.092-32.346-4.646-5.38 4.637-8.394 9.562-6.5 11.595z"/><path fill="#ffdad9" d="M406.06 205.73s-5.657 7.238-2.78 12.367c2.863 5.128 7.01 4.565 7.01 4.565l8.375-9.61s-.312-13.205-3.403-11.779c-2.924 1.366-1.258 5.38-1.079 5.8-.61-.875-11.155-15.83-14.223-13.493-3.175 2.42 6.1 12.15 6.1 12.15z"/><path d="M488.637 178.681c-.493 1.031-.387 2.104.236 2.402.635.303 1.536-.289 2.028-1.32.502-1.05.397-2.123-.238-2.427-.623-.297-1.524.295-2.026 1.345zM479.78 176.124c-.493 1.031-.387 2.104.236 2.402.635.303 1.536-.29 2.028-1.32.502-1.05.396-2.124-.239-2.427-.623-.297-1.523.295-2.025 1.345zM485.274 176.293c.056 1.93-.487 3.868-1.396 5.588-.236.426-.49.843-.765 1.244-.786 1.122-1.503 1.475.012 3.499a4.495 4.495 0 0 1-1.053-1.02c-.864-1.21.063-2.181.448-2.87.245-.395.483-.795.697-1.207.887-1.638 1.526-3.387 2.057-5.234z"/><path fill="#fff" d="M484.486 191.496c-.696 1.753-2.327 2.798-3.812 2.352-1.485-.446-2.27-2.216-1.885-4.063l5.697 1.71z"/><linearGradient id="Z" x1="399.177" x2="399.177" y1="388.374" y2="422.194" gradientUnits="userSpaceOnUse"><stop offset="0" stop-color="#ebf2ff"/><stop offset="1" stop-color="#e1e8ff"/></linearGradient><path fill="url(#Z)" d="m424.807 376.189-7.752 42.36H381.3l-7.752-42.36z"/><linearGradient id="aa" x1="392.031" x2="373.54" y1="370.341" y2="351.85" gradientUnits="userSpaceOnUse"><stop offset="0" stop-color="#3dcfa4"/><stop offset="1" stop-color="#30bb93"/></linearGradient><path fill="url(#aa)" d="M397.493 376.198s-11.504-42.424-37.226-46.223c0 0 21.055 27.545 21.164 46.223h16.062"/><linearGradient id="ab" x1="377.265" x2="374.778" y1="366.152" y2="373.387" gradientUnits="userSpaceOnUse"><stop offset="0" stop-color="#3dcfa4"/><stop offset="1" stop-color="#30bb93"/></linearGradient><path fill="url(#ab)" d="M395.648 376.198s-7.705-25.167-36.14-21.912c0 0 19.427 8.226 21.923 21.912h14.217"/><linearGradient id="ac" x1="412.343" x2="429.945" y1="367.954" y2="350.352" gradientUnits="userSpaceOnUse"><stop offset="0" stop-color="#3dcfa4"/><stop offset="1" stop-color="#30bb93"/></linearGradient><path fill="url(#ac)" d="M401.175 376.198s12.418-30.394 30.418-36.115c0 0-13.671 27.367-14.582 36.115h-15.836z"/><linearGradient id="ad" x1="398.78" x2="398.78" y1="343.165" y2="367.29" gradientUnits="userSpaceOnUse"><stop offset="0" stop-color="#3dcfa4"/><stop offset="1" stop-color="#30bb93"/></linearGradient><path fill="url(#ad)" d="M419.742 326.635s-11.055 40.558-10.815 49.558h-17.324s-5.46-44.773-13.784-58.557c0 0 19.034 12.194 24.044 33.733 0 0 3.42-18.464 17.879-24.734z"/><linearGradient id="ae" x1="-2437.823" x2="-2387.666" y1="161.739" y2="161.739" gradientTransform="matrix(-1 0 0 1 -2018.753 0)" gradientUnits="userSpaceOnUse"><stop offset="0" stop-color="#3dcfa4"/><stop offset="1" stop-color="#30bb93"/></linearGradient><path fill="url(#ae)" d="m374.728 177.797-.883 5.487c-.103.718.513 1.356 1.233 1.232l6.41-1.027a24.993 24.993 0 0 0 12.494 3.328c13.849 0 25.088-11.219 25.088-25.068s-11.24-25.089-25.088-25.089c-13.85 0-25.069 11.24-25.069 25.09a25.01 25.01 0 0 0 5.815 16.047z"/><path fill="#fff" d="m388.4 170.934-4.31-4.31a2.9 2.9 0 1 1 4.1-4.102l2.26 2.259 10.656-10.656a2.9 2.9 0 0 1 4.101 4.102L392.5 170.934a2.9 2.9 0 0 1-4.1 0z"/></svg>