<svg width="48" height="48" viewBox="0 0 48 48" fill="none" xmlns="http://www.w3.org/2000/svg">
<g clip-path="url(#clip0_7381_5296)">
<rect width="48" height="48" fill="#1250DC"/>
<path fill-rule="evenodd" clip-rule="evenodd" d="M32.6829 20.3133H32.8139C32.9002 20.3133 32.9775 20.3015 32.9775 20.1999C32.9775 20.11 32.8919 20.0958 32.8151 20.0958H32.6829V20.3133ZM32.5341 19.9883H32.8309C33.0212 19.9883 33.1257 20.0514 33.1257 20.2115C33.1257 20.341 33.0472 20.404 32.917 20.4153L33.1304 20.747H32.9792L32.7731 20.4204H32.6829V20.747H32.5341V19.9883ZM33.3379 20.3699C33.3379 20.0572 33.0998 19.8302 32.8057 19.8302C32.5111 19.8302 32.2736 20.0572 32.2736 20.3699C32.2736 20.6841 32.5111 20.9108 32.8057 20.9108C33.0998 20.9108 33.3379 20.6841 33.3379 20.3699ZM32.1016 20.3699C32.1016 20.0014 32.4175 19.7012 32.8057 19.7012C33.1936 19.7012 33.5089 20.0014 33.5089 20.3699C33.5089 20.7398 33.1936 21.0403 32.8057 21.0403C32.4175 21.0403 32.1016 20.7398 32.1016 20.3699Z" fill="white"/>
<path fill-rule="evenodd" clip-rule="evenodd" d="M18.1378 13.8115C17.0856 13.8115 16.1943 14.4625 15.8817 15.3638C15.8742 15.3836 15.8674 15.4047 15.8611 15.4246L15.8093 15.6184L14.4902 21.0559H17.8133C18.8062 21.0559 19.6515 20.4574 19.9731 19.6184L20.0985 19.1004L21.3816 13.8115H18.1378Z" fill="#034EA2"/>
<path fill-rule="evenodd" clip-rule="evenodd" d="M24.4061 12C23.3194 12 22.4031 12.6949 22.1204 13.6429C22.099 13.7139 22.0817 13.7861 22.0681 13.8597L19.8828 22.8679H23.1266C24.2379 22.8679 25.1708 22.1409 25.4301 21.1593V21.1598H25.4316L27.6533 12H24.4061Z" fill="#F37021"/>
<path fill-rule="evenodd" clip-rule="evenodd" d="M29.8001 13.8115C28.7851 13.8115 27.9194 14.4174 27.5791 15.2701C27.5618 15.3133 27.5013 15.4935 27.5013 15.4935L26.1523 21.0559H29.3967C30.5116 21.0559 31.4464 20.3253 31.7028 19.3394L31.7025 19.3399H31.7028L33.0432 13.8115H29.8001Z" fill="#51B848"/>
<path d="M13.4636 29.1389L12.3207 27.3266L12.3108 27.3306L12.3326 29.1389H11.5977V26.159H12.2593L13.42 28.0323L13.428 28.0244L13.3943 26.159H14.1292V29.1389H13.4636Z" fill="white"/>
<path d="M16.425 29.1389V27.9478H15.4425V29.1389H14.6759V26.159H15.4425V27.2795H16.425V26.159H17.1916V29.1389H16.425Z" fill="white"/>
<path d="M19.6696 29.1389L19.523 28.7085H18.4811L18.3226 29.1389H17.4986L18.703 26.159H19.3071L20.5016 29.1389H19.6696ZM19.012 27.0868H19.0001L18.6911 28.105H19.321L19.012 27.0868ZM19.3289 26.0156L18.3266 25.5811L18.5326 25.1094L19.5151 25.6244L19.3289 26.0156Z" fill="white"/>
<path d="M23.1876 26.8274V29.1389H22.421V26.8274H21.8288V26.159H23.7759V26.8274H23.1876Z" fill="white"/>
<path d="M25.834 29.1389V27.9478H24.8515V29.1389H24.0849V26.159H24.8515V27.2795H25.834V26.159H26.6006V29.1389H25.834Z" fill="white"/>
<path d="M29.4392 27.9596C29.4392 28.1627 29.422 28.3271 29.3877 28.4529C29.3415 28.6141 29.2589 28.7543 29.1401 28.8736C28.9275 29.0885 28.6475 29.196 28.3002 29.196C28.1312 29.196 27.9753 29.1717 27.8327 29.1232C27.6716 29.0682 27.5395 28.9863 27.4365 28.8775C27.3098 28.7452 27.2253 28.6036 27.183 28.4529C27.1645 28.3848 27.1513 28.3081 27.1434 28.223C27.1381 28.1548 27.1355 28.067 27.1355 27.9596V26.159H27.902V27.9596C27.902 28.0382 27.906 28.1057 27.9139 28.162C27.9245 28.2341 27.9423 28.295 27.9674 28.3448C28.0282 28.4667 28.1364 28.5276 28.2923 28.5276C28.4534 28.5276 28.5617 28.468 28.6171 28.3488C28.6396 28.3003 28.6554 28.24 28.6647 28.1679C28.67 28.1155 28.6726 28.0461 28.6726 27.9596V26.159H29.4392V27.9596Z" fill="white"/>
<path d="M33.0126 27.649C33.0126 28.0867 32.8581 28.4549 32.5491 28.7537C32.2414 29.0485 31.8664 29.196 31.424 29.196C30.9935 29.196 30.6244 29.0511 30.3167 28.7615C30.0024 28.468 29.8453 28.1096 29.8453 27.6863C29.8453 27.461 29.8842 27.2487 29.9621 27.0495C30.0031 26.9433 30.0684 26.8319 30.1582 26.7153C30.4699 26.3078 30.8931 26.104 31.428 26.104C31.869 26.104 32.2427 26.2521 32.5491 26.5482C32.8581 26.8457 33.0126 27.2126 33.0126 27.649ZM32.246 27.6529C32.246 27.4131 32.1721 27.2087 32.0242 27.0397C31.867 26.8614 31.6696 26.7723 31.4319 26.7723C31.1916 26.7723 30.9935 26.8588 30.8377 27.0318C30.6871 27.1982 30.6118 27.4013 30.6118 27.6411C30.6118 27.8862 30.6878 28.0932 30.8396 28.2623C30.9968 28.4392 31.1969 28.5276 31.4398 28.5276C31.6736 28.5276 31.8684 28.4385 32.0242 28.2603C32.1721 28.0913 32.246 27.8888 32.246 27.6529ZM32.1351 25.5595L31.945 25.1644L32.9176 24.6455L33.1335 25.1212L32.1351 25.5595ZM31.6181 25.8976L31.4319 25.6657L31.2457 25.8976H30.5881L31.22 25.2293H31.6577L32.2678 25.8976H31.6181Z" fill="white"/>
<path d="M36.4039 28.0244C36.3167 28.3743 36.1325 28.6574 35.8512 28.8736C35.5726 29.0885 35.251 29.196 34.8865 29.196C34.4481 29.196 34.075 29.0466 33.7673 28.7478C33.4583 28.4477 33.3038 28.0801 33.3038 27.6451C33.3038 27.2113 33.457 26.8451 33.7634 26.5463C34.0684 26.2514 34.4402 26.104 34.8786 26.104C35.4491 26.104 35.8895 26.3373 36.1998 26.8038C36.3081 26.965 36.3761 27.1274 36.4039 27.2913H35.5996C35.4663 26.9453 35.2246 26.7723 34.8746 26.7723C34.6383 26.7723 34.4435 26.8595 34.2903 27.0338C34.1437 27.2015 34.0704 27.4039 34.0704 27.6411C34.0704 27.8809 34.1437 28.086 34.2903 28.2564C34.4448 28.4372 34.6409 28.5276 34.8786 28.5276C35.2061 28.5276 35.4464 28.3599 35.5996 28.0244H36.4039Z" fill="white"/>
<path d="M8 35.4356V31.622H8.98107V34.5803H10.1193V35.4356H8Z" fill="white"/>
<path d="M14.3909 33.5288C14.3909 34.0889 14.1931 34.5602 13.7977 34.9426C13.4039 35.3199 12.9239 35.5086 12.3578 35.5086C11.8068 35.5086 11.3344 35.3233 10.9407 34.9526C10.5384 34.577 10.3373 34.1183 10.3373 33.5766C10.3373 33.2882 10.3872 33.0165 10.4869 32.7616C10.5393 32.6257 10.6229 32.4832 10.7379 32.3339C11.1367 31.8123 11.6784 31.5516 12.3628 31.5516C12.9273 31.5516 13.4056 31.7411 13.7977 32.1201C14.1931 32.5008 14.3909 32.9703 14.3909 33.5288ZM13.4098 33.5338C13.4098 33.2269 13.3152 32.9653 13.1259 32.749C12.9248 32.5209 12.6721 32.4069 12.3679 32.4069C12.0603 32.4069 11.8068 32.5175 11.6074 32.7389C11.4147 32.9519 11.3184 33.2118 11.3184 33.5187C11.3184 33.8324 11.4156 34.0973 11.6099 34.3137C11.811 34.5401 12.0671 34.6533 12.378 34.6533C12.6772 34.6533 12.9265 34.5392 13.1259 34.3112C13.3152 34.0948 13.4098 33.8357 13.4098 33.5338Z" fill="white"/>
<path d="M17.3087 35.4356L15.846 33.1163L15.8333 33.1213L15.8612 35.4356H14.9207V31.622H15.7674L17.253 34.0193L17.2631 34.0093L17.22 31.622H18.1605V35.4356H17.3087Z" fill="white"/>
<path d="M22.7844 33.4684C22.7844 34.0537 22.5901 34.5409 22.2014 34.93C21.811 35.3191 21.3217 35.5136 20.7336 35.5136C20.1657 35.5136 19.6841 35.3216 19.2886 34.9375C18.8914 34.5501 18.6929 34.0755 18.6929 33.5137C18.6929 32.9502 18.8948 32.4798 19.2987 32.1025C19.6942 31.7352 20.1776 31.5516 20.7488 31.5516C21.1747 31.5516 21.5693 31.6748 21.9327 31.9214C22.3095 32.1763 22.5554 32.5025 22.6704 32.8999H21.5701C21.3842 32.5712 21.102 32.4069 20.7234 32.4069C20.4159 32.4069 20.1623 32.5159 19.9629 32.7339C19.7703 32.9452 19.6739 33.2051 19.6739 33.5137C19.6739 33.8357 19.7677 34.104 19.9553 34.3187C20.1531 34.5451 20.4108 34.6583 20.7285 34.6583C20.9499 34.6583 21.1409 34.6088 21.3014 34.5099C21.4738 34.4026 21.5887 34.2474 21.6462 34.0445H20.5004V33.2672H22.7794C22.7811 33.2974 22.7828 33.3309 22.7844 33.3678V33.4684Z" fill="white"/>
<path d="M28.7038 34.0093C28.5923 34.4571 28.3565 34.8193 27.9965 35.096C27.6399 35.3711 27.2284 35.5086 26.7619 35.5086C26.2008 35.5086 25.7234 35.3174 25.3296 34.935C24.9342 34.551 24.7364 34.0806 24.7364 33.5238C24.7364 32.9687 24.9325 32.4999 25.3246 32.1176C25.715 31.7402 26.1907 31.5516 26.7518 31.5516C27.4819 31.5516 28.0455 31.8501 28.4427 32.4471C28.5813 32.6534 28.6683 32.8613 28.7038 33.071H27.6746C27.5039 32.6282 27.1946 32.4069 26.7467 32.4069C26.4442 32.4069 26.1949 32.5184 25.9989 32.7414C25.8113 32.9561 25.7175 33.2152 25.7175 33.5187C25.7175 33.8256 25.8113 34.0881 25.9989 34.3061C26.1966 34.5376 26.4476 34.6533 26.7518 34.6533C27.1709 34.6533 27.4785 34.4386 27.6746 34.0093H28.7038Z" fill="white"/>
<path d="M31.4518 35.4356V33.9112H30.1944V35.4356H29.2133V31.622H30.1944V33.0559H31.4518V31.622H32.4329V35.4356H31.4518Z" fill="white"/>
<path d="M35.6042 35.4356L35.4166 34.8847H34.0832L33.8804 35.4356H32.8258L34.3671 31.622H35.1403L36.6689 35.4356H35.6042ZM34.7626 32.8094H34.7474L34.3519 34.1124H35.158L34.7626 32.8094ZM34.9907 31.2874L34.7524 30.9906L34.5141 31.2874H33.6725L34.4812 30.4321H35.0414L35.8222 31.2874H34.9907Z" fill="white"/>
<path d="M40 33.9263C40 34.1862 39.978 34.3967 39.9341 34.5577C39.8749 34.764 39.7693 34.9434 39.6172 35.096C39.3451 35.3711 38.9868 35.5086 38.5423 35.5086C38.326 35.5086 38.1266 35.4775 37.9441 35.4155C37.7379 35.3451 37.5689 35.2402 37.4371 35.101C37.2748 34.9317 37.1667 34.7505 37.1126 34.5577C37.0889 34.4705 37.072 34.3724 37.0619 34.2634C37.0551 34.1762 37.0517 34.0638 37.0517 33.9263V31.622H38.0328V33.9263C38.0328 34.0269 38.0379 34.1133 38.048 34.1854C38.0615 34.2776 38.0843 34.3556 38.1165 34.4193C38.1942 34.5753 38.3328 34.6533 38.5322 34.6533C38.7384 34.6533 38.877 34.577 38.948 34.4244C38.9767 34.3623 38.997 34.2852 39.0088 34.1929C39.0156 34.1258 39.0189 34.037 39.0189 33.9263V31.622H40V33.9263Z" fill="white"/>
</g>
<defs>
<clipPath id="clip0_7381_5296">
<rect width="48" height="48" rx="24" fill="white"/>
</clipPath>
</defs>
</svg>
