<svg xmlns="http://www.w3.org/2000/svg" enable-background="new 0 0 64 64" viewBox="0 0 64 64"><path fill="#2563eb" d="M27.84 35.18c-14.22 0-25.78 11.57-25.78 25.78 0 1.68 1.36 3.04 3.04 3.04 1.68 0 3.04-1.36 3.04-3.04 0-10.86 8.84-19.7 19.7-19.7 10.86 0 19.7 8.84 19.7 19.7 0 1.68 1.37 3.04 3.04 3.04 1.68 0 3.04-1.36 3.04-3.04C53.62 46.74 42.05 35.18 27.84 35.18zM27.84 31.31c8.63 0 15.66-7.02 15.66-15.66C43.49 7.02 36.47 0 27.84 0 19.2 0 12.18 7.02 12.18 15.66 12.18 24.29 19.2 31.31 27.84 31.31zM27.84 6.09c5.28 0 9.57 4.29 9.57 9.57s-4.29 9.57-9.57 9.57c-5.28 0-9.57-4.29-9.57-9.57S22.56 6.09 27.84 6.09z"/><path fill="#08bd28" d="M61.06,21.65c-0.57-0.57-1.34-0.89-2.15-0.89s-1.58,0.32-2.15,0.89L47.7,30.7l-3.31-3.3   c-0.57-0.57-1.34-0.89-2.15-0.89c-0.81,0-1.58,0.32-2.15,0.89c-1.19,1.19-1.19,3.12,0,4.3l5.46,5.46c0.57,0.58,1.34,0.89,2.15,0.89   c0.81,0,1.58-0.32,2.15-0.89l11.21-11.21C62.24,24.76,62.24,22.83,61.06,21.65z"/></svg>