<svg
  width="36"
  height="36"
  viewBox="0 0 36 36"
  fill="none"
  xmlns="http://www.w3.org/2000/svg"
>
  <path
    d="M36 18.4844C36 23.1572 34.2685 27.425 31.413 30.6796C28.0301 34.5352 23.0696 36 17.5415 36C7.34716 36 0 28.3654 0 18.1568C0 10.3911 3.86502 4.07166 10.6411 1.33492C12.7728 0.473921 15.1019 0 17.5415 0C27.7359 0 36 8.27567 36 18.4844Z"
    fill="#F1D333"
  />
  <path
    d="M20.9175 25.0589C20.157 25.3014 19.3256 25.4349 18.4546 25.4349C16.8462 25.4349 15.3732 24.9796 14.2319 24.2241C13.8659 23.9817 13.3732 24.2077 13.3239 24.6439C13.3036 24.8235 13.2926 25.0059 13.2912 25.1906C13.273 27.6376 14.9864 29.7192 17.2807 30.2579L19.0377 30.1287C21.5774 29.9419 22.7215 26.8563 20.9175 25.0589Z"
    fill="#A55A3C"
  />
  <path
    d="M23.5865 24.6436C23.5372 24.2078 23.044 23.9831 22.6782 24.2251C22.1552 24.5713 21.562 24.8535 20.9185 25.0586C20.9229 25.146 20.9255 25.2339 20.9255 25.3224C20.9255 27.645 19.3919 29.6091 17.2822 30.2582C17.638 30.3418 18.0076 30.3886 18.387 30.3935C21.2704 30.4312 23.6196 28.1051 23.6196 25.2304C23.6196 25.032 23.6083 24.8361 23.5865 24.6436Z"
    fill="#783C28"
  />
  <path
    d="M13.6171 12.4855L14.9455 14.2932C15.027 14.4042 15.141 14.487 15.2718 14.5303L17.4016 15.2351C17.8267 15.3759 17.9934 15.8886 17.7321 16.2524L16.4234 18.0744C16.3431 18.1863 16.2995 18.3203 16.2988 18.458L16.2866 20.7013C16.2842 21.1492 15.848 21.4662 15.4213 21.33L13.284 20.6483C13.1529 20.6065 13.0119 20.6065 12.8807 20.6483L10.7434 21.33C10.3167 21.4661 9.88051 21.1492 9.87808 20.7013L9.86594 18.458C9.8652 18.3203 9.82164 18.1862 9.74133 18.0744L8.4326 16.2524C8.1713 15.8887 8.33793 15.3759 8.76315 15.2351L10.8929 14.5303C11.0237 14.487 11.1377 14.4042 11.2192 14.2932L12.5477 12.4855C12.8127 12.1246 13.3519 12.1246 13.6171 12.4855Z"
    fill="#EAB14D"
  />
  <path
    d="M13.6171 11.5207L14.9455 13.3284C15.027 13.4393 15.141 13.5222 15.2718 13.5655L17.4016 14.2703C17.8267 14.411 17.9934 14.9238 17.7321 15.2876L16.4234 17.1096C16.3431 17.2215 16.2995 17.3555 16.2988 17.4932L16.2866 19.7365C16.2842 20.1844 15.848 20.5013 15.4213 20.3652L13.284 19.6835C13.1529 19.6417 13.0119 19.6417 12.8807 19.6835L10.7434 20.3652C10.3167 20.5012 9.88051 20.1843 9.87808 19.7365L9.86594 17.4932C9.8652 17.3555 9.82164 17.2214 9.74133 17.1096L8.4326 15.2876C8.1713 14.9238 8.33793 14.411 8.76315 14.2703L10.8929 13.5655C11.0237 13.5222 11.1377 13.4394 11.2192 13.3284L12.5477 11.5207C12.8127 11.1598 13.3519 11.1598 13.6171 11.5207Z"
    fill="#F9F48E"
  />
  <path
    d="M12.7503 16.6596C11.7968 15.7843 11.3667 14.4967 11.2856 13.2383L11.2192 13.3286C11.1377 13.4396 11.0236 13.5224 10.8929 13.5657L8.76311 14.2705C8.33795 14.4113 8.17132 14.924 8.43256 15.2878L9.74128 17.1098C9.8216 17.2217 9.86516 17.3557 9.8659 17.4934L9.87804 19.7367C9.88046 20.1846 10.3167 20.5016 10.7434 20.3654L12.8807 19.6837C13.0118 19.6419 13.1528 19.6419 13.284 19.6837L15.4212 20.3654C15.848 20.5015 16.2842 20.1846 16.2866 19.7367L16.2953 18.1325C14.9373 18.1293 13.7315 17.5604 12.7503 16.6596Z"
    fill="#F9EF63"
  />
  <path
    d="M24.3202 12.4855L25.6486 14.2932C25.7301 14.4042 25.8442 14.487 25.9749 14.5303L28.1047 15.2351C28.5299 15.3759 28.6965 15.8886 28.4353 16.2524L27.1265 18.0744C27.0462 18.1863 27.0027 18.3203 27.0019 18.458L26.9898 20.7013C26.9873 21.1492 26.5511 21.4662 26.1244 21.33L23.9871 20.6483C23.856 20.6065 23.715 20.6065 23.5838 20.6483L21.4466 21.33C21.0199 21.4661 20.5836 21.1492 20.5812 20.7013L20.5691 18.458C20.5683 18.3203 20.5248 18.1862 20.4445 18.0744L19.1357 16.2524C18.8744 15.8887 19.0411 15.3759 19.4663 15.2351L21.5961 14.5303C21.7268 14.487 21.8408 14.4042 21.9224 14.2932L23.2508 12.4855C23.5158 12.1246 24.055 12.1246 24.3202 12.4855Z"
    fill="#EAB14D"
  />
  <path
    d="M24.3207 11.5207L25.6491 13.3284C25.7306 13.4393 25.8447 13.5222 25.9754 13.5655L28.1052 14.2703C28.5304 14.411 28.697 14.9238 28.4357 15.2876L27.127 17.1096C27.0467 17.2215 27.0031 17.3555 27.0024 17.4932L26.9903 19.7365C26.9878 20.1844 26.5516 20.5013 26.1249 20.3652L23.9876 19.6835C23.8565 19.6417 23.7155 19.6417 23.5843 19.6835L21.4471 20.3652C21.0203 20.5012 20.5841 20.1843 20.5817 19.7365L20.5696 17.4932C20.5688 17.3555 20.5253 17.2214 20.4449 17.1096L19.1362 15.2876C18.8749 14.9238 19.0415 14.411 19.4668 14.2703L21.5965 13.5655C21.7273 13.5222 21.8413 13.4394 21.9229 13.3284L23.2513 11.5207C23.5163 11.1598 24.0555 11.1598 24.3207 11.5207Z"
    fill="#F9F48E"
  />
  <path
    d="M23.4509 16.6596C22.4975 15.7843 22.0674 14.4967 21.9863 13.2383L21.9199 13.3286C21.8384 13.4396 21.7243 13.5224 21.5936 13.5657L19.4638 14.2705C19.0386 14.4113 18.872 14.924 19.1332 15.2878L20.442 17.1098C20.5223 17.2217 20.5658 17.3557 20.5666 17.4934L20.5787 19.7367C20.5811 20.1846 21.0174 20.5016 21.4441 20.3654L23.5813 19.6837C23.7125 19.6419 23.8535 19.6419 23.9847 19.6837L26.1219 20.3654C26.5486 20.5015 26.9849 20.1846 26.9873 19.7367L26.996 18.1325C25.638 18.1293 24.4323 17.5604 23.4509 16.6596Z"
    fill="#F9EF63"
  />
</svg>
