<svg width="48" height="48" viewBox="0 0 48 48" fill="none" xmlns="http://www.w3.org/2000/svg">
<g clip-path="url(#clip0_6685_446026)">
<g clip-path="url(#clip1_6685_446026)">
<path d="M36.0641 12.7954L39.9678 28.2223C40.1107 28.7861 39.7693 29.3592 39.2049 29.5021L16.2587 35.3081C15.5271 35.4929 14.7535 35.2605 14.2461 34.7018L8.93489 28.8588C8.47637 28.3545 8.29973 27.6561 8.46321 26.994L10.3562 19.3288C10.5372 18.5959 11.1072 18.0227 11.8382 17.8379L34.7844 12.0325C35.3482 11.8897 35.9213 12.2311 36.0641 12.7954Z" fill="black"/>
<path d="M36.0641 12.7954L39.9678 28.2223C40.1107 28.7861 39.7693 29.3592 39.2049 29.5021L16.2587 35.3081C15.5271 35.4929 14.7535 35.2605 14.2461 34.7018L8.93489 28.8588C8.47637 28.3545 8.29973 27.6561 8.46321 26.994L10.3562 19.3288C10.5372 18.5959 11.1072 18.0227 11.8382 17.8379L34.7844 12.0325C35.3482 11.8897 35.9213 12.2311 36.0641 12.7954Z" fill="url(#paint0_linear_6685_446026)"/>
<path d="M38.4811 19.3671V35.4235C38.4811 35.9659 38.0414 36.405 37.4995 36.405H13.7591C13.0049 36.405 12.3115 35.9891 11.9563 35.3233L8.24054 28.3571C7.91982 27.7558 7.91982 27.0348 8.24054 26.4341L11.9563 19.4673C12.3115 18.8014 13.0043 18.3855 13.7591 18.3855H37.4995C38.042 18.3855 38.4811 18.8252 38.4811 19.3671Z" fill="#E6ECFE"/>
<path d="M38.4811 19.3671V35.4235C38.4811 35.9659 38.0414 36.405 37.4995 36.405H13.7591C13.0049 36.405 12.3115 35.9891 11.9563 35.3233L8.24054 28.3571C7.91982 27.7558 7.91982 27.0348 8.24054 26.4341L11.9563 19.4673C12.3115 18.8014 13.0043 18.3855 13.7591 18.3855H37.4995C38.042 18.3855 38.4811 18.8252 38.4811 19.3671Z" fill="url(#paint1_linear_6685_446026)"/>
<path d="M14.6251 27.3956C14.6251 28.1704 13.9968 28.7987 13.2214 28.7987C12.4459 28.7987 11.8182 28.1704 11.8182 27.3956C11.8182 26.6207 12.4465 25.9924 13.2214 25.9924C13.9962 25.9924 14.6251 26.6207 14.6251 27.3956Z" fill="white"/>
<path d="M24.4204 21.9121C23.1244 21.9121 22.0702 22.9657 22.0702 24.2617C22.0702 25.5577 23.1238 26.612 24.4204 26.612C25.7171 26.612 26.7707 25.5584 26.7707 24.2617C26.7707 22.9651 25.7164 21.9121 24.4204 21.9121ZM24.4204 25.0453C23.9876 25.0453 23.6368 24.6952 23.6368 24.2617C23.6368 23.8283 23.987 23.4781 24.4204 23.4781C24.8539 23.4781 25.2041 23.8289 25.2041 24.2617C25.2041 24.6946 24.8533 25.0453 24.4204 25.0453Z" fill="white"/>
<path d="M31.3392 23.1304L25.0721 32.5307C24.836 32.8853 24.3518 32.9905 23.986 32.7475C23.6258 32.5075 23.5287 32.0215 23.7686 31.6619L30.0357 22.2616C30.2731 21.9014 30.7592 21.803 31.1219 22.0436C31.4821 22.2841 31.5791 22.7702 31.3392 23.1304Z" fill="white"/>
<path d="M30.6875 28.1792C29.3915 28.1792 28.3373 29.2328 28.3373 30.5288C28.3373 31.8248 29.3909 32.8791 30.6875 32.8791C31.9842 32.8791 33.0378 31.8255 33.0378 30.5294C33.0378 29.2334 31.9835 28.1792 30.6875 28.1792ZM30.6875 31.3124C30.2547 31.3124 29.9039 30.9623 29.9039 30.5288C29.9039 30.0953 30.2541 29.7452 30.6875 29.7452C31.121 29.7452 31.4705 30.096 31.4711 30.5288C31.4711 30.9617 31.1204 31.3124 30.6875 31.3124Z" fill="white"/>
</g>
</g>
<defs>
<linearGradient id="paint0_linear_6685_446026" x1="24.2019" y1="12" x2="24.2019" y2="34.063" gradientUnits="userSpaceOnUse">
<stop stop-color="#1247BD"/>
<stop offset="1" stop-color="#06296D"/>
</linearGradient>
<linearGradient id="paint1_linear_6685_446026" x1="23.2405" y1="18.3855" x2="23.2405" y2="36.405" gradientUnits="userSpaceOnUse">
<stop stop-color="#1250DC"/>
<stop offset="1" stop-color="#306DE4"/>
</linearGradient>
<clipPath id="clip0_6685_446026">
<rect width="32" height="32" fill="white" transform="translate(8 8)"/>
</clipPath>
<clipPath id="clip1_6685_446026">
<rect width="32" height="32" fill="white" transform="translate(8.1875 8.25269)"/>
</clipPath>
</defs>
</svg>
